<?xml version="1.0" encoding="UTF-8" standalone="no"?>
<!DOCTYPE svg PUBLIC "-//W3C//DTD SVG 1.1//EN"
 "http://www.w3.org/Graphics/SVG/1.1/DTD/svg11.dtd">
<!-- Generated by graphviz version 2.40.1 (20161225.0304)
 -->
<!-- Title: escaped_graph Pages: 1 -->
<svg width="1160pt" height="584pt"
 viewBox="0.00 0.00 1160.00 584.00" xmlns="http://www.w3.org/2000/svg" xmlns:xlink="http://www.w3.org/1999/xlink">
<g id="graph0" class="graph" transform="scale(1 1) rotate(0) translate(4 580)">
<title>escaped_graph</title>
<polygon fill="#ffffff" stroke="transparent" points="-4,4 -4,-580 1156,-580 1156,4 -4,4"/>
<g id="clust1" class="cluster">
<title>cluster_LMNtalGraph</title>
<polygon fill="#ffffc3" stroke="#000000" points="8,-13.5929 8,-562.4071 1144,-562.4071 1144,-13.5929 8,-13.5929"/>
<text text-anchor="middle" x="55.5" y="-547.2071" font-family="Times,serif" font-size="14.00" fill="#000000">LMNtalGraph</text>
</g>
<!-- LMNtalGraph_isomorphic_sym -->
<g id="node1" class="node">
<title>LMNtalGraph_isomorphic_sym</title>
<g id="a_node1"><a xlink:href="LMNtalGraph.html#isomorphic_sym" xlink:title="isomorphic_sym">
<ellipse fill="#7fffd4" stroke="#000000" cx="1058" cy="-465.5929" rx="70.3682" ry="18"/>
<ellipse fill="none" stroke="#000000" cx="1058" cy="-465.5929" rx="74.3781" ry="22"/>
<ellipse fill="none" stroke="#000000" cx="1058" cy="-465.5929" rx="78.388" ry="26"/>
<text text-anchor="middle" x="1058" y="-461.8929" font-family="Times,serif" font-size="14.00" fill="#000000">isomorphic_sym</text>
</a>
</g>
</g>
<!-- LMNtalGraph_swap_atomid_twice -->
<g id="node2" class="node">
<title>LMNtalGraph_swap_atomid_twice</title>
<g id="a_node2"><a xlink:href="LMNtalGraph.html#swap_atomid_twice" xlink:title="swap_atomid_twice">
<ellipse fill="#7fffd4" stroke="#000000" cx="1032" cy="-315.5929" rx="81.4863" ry="18"/>
<text text-anchor="middle" x="1032" y="-311.8929" font-family="Times,serif" font-size="14.00" fill="#000000">swap_atomid_twice</text>
</a>
</g>
</g>
<!-- LMNtalGraph_isomorphic_sym&#45;&gt;LMNtalGraph_swap_atomid_twice -->
<g id="edge1" class="edge">
<title>LMNtalGraph_isomorphic_sym&#45;&gt;LMNtalGraph_swap_atomid_twice</title>
<path fill="none" stroke="#000000" d="M1053.4711,-439.4649C1048.8472,-412.7885 1041.6908,-371.5015 1036.9275,-344.0207"/>
<polygon fill="#000000" stroke="#000000" points="1040.3251,-343.1286 1035.1686,-333.8733 1033.428,-344.3242 1040.3251,-343.1286"/>
</g>
<!-- LMNtalGraph_swap_atomid_list_app -->
<g id="node10" class="node">
<title>LMNtalGraph_swap_atomid_list_app</title>
<g id="a_node10"><a xlink:href="LMNtalGraph.html#swap_atomid_list_app" xlink:title="swap_atomid_list_app">
<ellipse fill="#7fffd4" stroke="#000000" cx="654" cy="-315.5929" rx="90.1842" ry="18"/>
<text text-anchor="middle" x="654" y="-311.8929" font-family="Times,serif" font-size="14.00" fill="#000000">swap_atomid_list_app</text>
</a>
</g>
</g>
<!-- LMNtalGraph_isomorphic_sym&#45;&gt;LMNtalGraph_swap_atomid_list_app -->
<g id="edge2" class="edge">
<title>LMNtalGraph_isomorphic_sym&#45;&gt;LMNtalGraph_swap_atomid_list_app</title>
<path fill="none" stroke="#000000" d="M1005.5982,-446.1368C928.1026,-417.3637 783.7758,-363.777 706.3245,-335.0204"/>
<polygon fill="#000000" stroke="#000000" points="707.3572,-331.6704 696.7643,-331.4707 704.9207,-338.2327 707.3572,-331.6704"/>
</g>
<!-- LMNtalGraph_swap_atomid_atom_twice -->
<g id="node3" class="node">
<title>LMNtalGraph_swap_atomid_atom_twice</title>
<g id="a_node3"><a xlink:href="LMNtalGraph.html#swap_atomid_atom_twice" xlink:title="swap_atomid_atom_twice">
<ellipse fill="#7fffd4" stroke="#000000" cx="1032" cy="-180.5929" rx="103.9815" ry="18"/>
<text text-anchor="middle" x="1032" y="-176.8929" font-family="Times,serif" font-size="14.00" fill="#000000">swap_atomid_atom_twice</text>
</a>
</g>
</g>
<!-- LMNtalGraph_swap_atomid_twice&#45;&gt;LMNtalGraph_swap_atomid_atom_twice -->
<g id="edge3" class="edge">
<title>LMNtalGraph_swap_atomid_twice&#45;&gt;LMNtalGraph_swap_atomid_atom_twice</title>
<path fill="none" stroke="#000000" d="M1032,-297.3862C1032,-274.7406 1032,-235.8194 1032,-209.1794"/>
<polygon fill="#000000" stroke="#000000" points="1035.5001,-208.9423 1032,-198.9423 1028.5001,-208.9424 1035.5001,-208.9423"/>
</g>
<!-- LMNtalGraph_swap_atomid_atom_n_n -->
<g id="node6" class="node">
<title>LMNtalGraph_swap_atomid_atom_n_n</title>
<g id="a_node6"><a xlink:href="LMNtalGraph.html#swap_atomid_atom_n_n" xlink:title="swap_atomid_atom_n_n">
<ellipse fill="#7fffd4" stroke="#000000" cx="812" cy="-180.5929" rx="98.2828" ry="18"/>
<text text-anchor="middle" x="812" y="-176.8929" font-family="Times,serif" font-size="14.00" fill="#000000">swap_atomid_atom_n_n</text>
</a>
</g>
</g>
<!-- LMNtalGraph_swap_atomid_twice&#45;&gt;LMNtalGraph_swap_atomid_atom_n_n -->
<g id="edge4" class="edge">
<title>LMNtalGraph_swap_atomid_twice&#45;&gt;LMNtalGraph_swap_atomid_atom_n_n</title>
<path fill="none" stroke="#000000" d="M1004.1368,-298.4951C964.7627,-274.3337 892.7681,-230.1552 848.964,-203.2754"/>
<polygon fill="#000000" stroke="#000000" points="850.6856,-200.2254 840.3318,-197.9784 847.0245,-206.1917 850.6856,-200.2254"/>
</g>
<!-- LMNtalGraph_swap_atomid_port_twice -->
<g id="node4" class="node">
<title>LMNtalGraph_swap_atomid_port_twice</title>
<g id="a_node4"><a xlink:href="LMNtalGraph.html#swap_atomid_port_twice" xlink:title="swap_atomid_port_twice">
<ellipse fill="#7fffd4" stroke="#000000" cx="1032" cy="-57.5929" rx="100.1823" ry="18"/>
<text text-anchor="middle" x="1032" y="-53.8929" font-family="Times,serif" font-size="14.00" fill="#000000">swap_atomid_port_twice</text>
</a>
</g>
</g>
<!-- LMNtalGraph_swap_atomid_atom_twice&#45;&gt;LMNtalGraph_swap_atomid_port_twice -->
<g id="edge5" class="edge">
<title>LMNtalGraph_swap_atomid_atom_twice&#45;&gt;LMNtalGraph_swap_atomid_port_twice</title>
<path fill="none" stroke="#000000" d="M1032,-162.4438C1032,-142.2772 1032,-109.4573 1032,-85.9062"/>
<polygon fill="#000000" stroke="#000000" points="1035.5001,-85.8164 1032,-75.8165 1028.5001,-85.8165 1035.5001,-85.8164"/>
</g>
<!-- LMNtalGraph_swap_atomid_n_n -->
<g id="node5" class="node">
<title>LMNtalGraph_swap_atomid_n_n</title>
<g id="a_node5"><a xlink:href="LMNtalGraph.html#swap_atomid_n_n" xlink:title="swap_atomid_n_n">
<ellipse fill="#7fffd4" stroke="#000000" cx="846" cy="-315.5929" rx="75.297" ry="18"/>
<ellipse fill="none" stroke="#000000" cx="846" cy="-315.5929" rx="79.2919" ry="22"/>
<ellipse fill="none" stroke="#000000" cx="846" cy="-315.5929" rx="83.2868" ry="26"/>
<text text-anchor="middle" x="846" y="-311.8929" font-family="Times,serif" font-size="14.00" fill="#000000">swap_atomid_n_n</text>
</a>
</g>
</g>
<!-- LMNtalGraph_swap_atomid_n_n&#45;&gt;LMNtalGraph_swap_atomid_atom_n_n -->
<g id="edge6" class="edge">
<title>LMNtalGraph_swap_atomid_n_n&#45;&gt;LMNtalGraph_swap_atomid_atom_n_n</title>
<path fill="none" stroke="#000000" d="M839.4445,-289.5636C833.5948,-266.3369 825.0513,-232.4144 819.0545,-208.6036"/>
<polygon fill="#000000" stroke="#000000" points="822.4129,-207.6069 816.5766,-198.7646 815.6249,-209.3166 822.4129,-207.6069"/>
</g>
<!-- LMNtalGraph_swap_atomid_port_n_n -->
<g id="node7" class="node">
<title>LMNtalGraph_swap_atomid_port_n_n</title>
<g id="a_node7"><a xlink:href="LMNtalGraph.html#swap_atomid_port_n_n" xlink:title="swap_atomid_port_n_n">
<ellipse fill="#7fffd4" stroke="#000000" cx="812" cy="-57.5929" rx="94.4839" ry="18"/>
<text text-anchor="middle" x="812" y="-53.8929" font-family="Times,serif" font-size="14.00" fill="#000000">swap_atomid_port_n_n</text>
</a>
</g>
</g>
<!-- LMNtalGraph_swap_atomid_atom_n_n&#45;&gt;LMNtalGraph_swap_atomid_port_n_n -->
<g id="edge7" class="edge">
<title>LMNtalGraph_swap_atomid_atom_n_n&#45;&gt;LMNtalGraph_swap_atomid_port_n_n</title>
<path fill="none" stroke="#000000" d="M812,-162.4438C812,-142.2772 812,-109.4573 812,-85.9062"/>
<polygon fill="#000000" stroke="#000000" points="815.5001,-85.8164 812,-75.8165 808.5001,-85.8165 815.5001,-85.8164"/>
</g>
<!-- LMNtalGraph_equiv_swap_atomid_list -->
<g id="node8" class="node">
<title>LMNtalGraph_equiv_swap_atomid_list</title>
<g id="a_node8"><a xlink:href="LMNtalGraph.html#equiv_swap_atomid_list" xlink:title="equiv_swap_atomid_list">
<ellipse fill="#7fffd4" stroke="#000000" cx="857" cy="-465.5929" rx="96.6951" ry="18"/>
<ellipse fill="none" stroke="#000000" cx="857" cy="-465.5929" rx="100.6891" ry="22"/>
<ellipse fill="none" stroke="#000000" cx="857" cy="-465.5929" rx="104.6831" ry="26"/>
<text text-anchor="middle" x="857" y="-461.8929" font-family="Times,serif" font-size="14.00" fill="#000000">equiv_swap_atomid_list</text>
</a>
</g>
</g>
<!-- LMNtalGraph_isomorphic_trans -->
<g id="node9" class="node">
<title>LMNtalGraph_isomorphic_trans</title>
<g id="a_node9"><a xlink:href="LMNtalGraph.html#isomorphic_trans" xlink:title="isomorphic_trans">
<ellipse fill="#7fffd4" stroke="#000000" cx="654" cy="-465.5929" rx="72.2731" ry="18"/>
<ellipse fill="none" stroke="#000000" cx="654" cy="-465.5929" rx="76.2803" ry="22"/>
<ellipse fill="none" stroke="#000000" cx="654" cy="-465.5929" rx="80.2875" ry="26"/>
<text text-anchor="middle" x="654" y="-461.8929" font-family="Times,serif" font-size="14.00" fill="#000000">isomorphic_trans</text>
</a>
</g>
</g>
<!-- LMNtalGraph_isomorphic_trans&#45;&gt;LMNtalGraph_swap_atomid_list_app -->
<g id="edge8" class="edge">
<title>LMNtalGraph_isomorphic_trans&#45;&gt;LMNtalGraph_swap_atomid_list_app</title>
<path fill="none" stroke="#000000" d="M654,-439.4649C654,-412.7885 654,-371.5015 654,-344.0207"/>
<polygon fill="#000000" stroke="#000000" points="657.5001,-343.8733 654,-333.8733 650.5001,-343.8734 657.5001,-343.8733"/>
</g>
<!-- LMNtalGraph_isomorphic_refl -->
<g id="node11" class="node">
<title>LMNtalGraph_isomorphic_refl</title>
<g id="a_node11"><a xlink:href="LMNtalGraph.html#isomorphic_refl" xlink:title="isomorphic_refl">
<ellipse fill="#7fffd4" stroke="#000000" cx="480" cy="-465.5929" rx="67.6782" ry="18"/>
<ellipse fill="none" stroke="#000000" cx="480" cy="-465.5929" rx="71.6831" ry="22"/>
<ellipse fill="none" stroke="#000000" cx="480" cy="-465.5929" rx="75.6881" ry="26"/>
<text text-anchor="middle" x="480" y="-461.8929" font-family="Times,serif" font-size="14.00" fill="#000000">isomorphic_refl</text>
</a>
</g>
</g>
<!-- LMNtalGraph_equiv_refl -->
<g id="node14" class="node">
<title>LMNtalGraph_equiv_refl</title>
<g id="a_node14"><a xlink:href="LMNtalGraph.html#equiv_refl" xlink:title="equiv_refl">
<ellipse fill="#7fffd4" stroke="#000000" cx="480" cy="-315.5929" rx="46.5926" ry="18"/>
<text text-anchor="middle" x="480" y="-311.8929" font-family="Times,serif" font-size="14.00" fill="#000000">equiv_refl</text>
</a>
</g>
</g>
<!-- LMNtalGraph_isomorphic_refl&#45;&gt;LMNtalGraph_equiv_refl -->
<g id="edge9" class="edge">
<title>LMNtalGraph_isomorphic_refl&#45;&gt;LMNtalGraph_equiv_refl</title>
<path fill="none" stroke="#000000" d="M480,-439.4649C480,-412.7885 480,-371.5015 480,-344.0207"/>
<polygon fill="#000000" stroke="#000000" points="483.5001,-343.8733 480,-333.8733 476.5001,-343.8734 483.5001,-343.8733"/>
</g>
<!-- LMNtalGraph_equiv_sym -->
<g id="node12" class="node">
<title>LMNtalGraph_equiv_sym</title>
<g id="a_node12"><a xlink:href="LMNtalGraph.html#equiv_sym" xlink:title="equiv_sym">
<ellipse fill="#7fffd4" stroke="#000000" cx="328" cy="-465.5929" rx="50.0849" ry="18"/>
<ellipse fill="none" stroke="#000000" cx="328" cy="-465.5929" rx="54.088" ry="22"/>
<ellipse fill="none" stroke="#000000" cx="328" cy="-465.5929" rx="58.0912" ry="26"/>
<text text-anchor="middle" x="328" y="-461.8929" font-family="Times,serif" font-size="14.00" fill="#000000">equiv_sym</text>
</a>
</g>
</g>
<!-- LMNtalGraph_equiv_trans -->
<g id="node13" class="node">
<title>LMNtalGraph_equiv_trans</title>
<g id="a_node13"><a xlink:href="LMNtalGraph.html#equiv_trans" xlink:title="equiv_trans">
<ellipse fill="#7fffd4" stroke="#000000" cx="192" cy="-465.5929" rx="51.9914" ry="18"/>
<ellipse fill="none" stroke="#000000" cx="192" cy="-465.5929" rx="55.9911" ry="22"/>
<ellipse fill="none" stroke="#000000" cx="192" cy="-465.5929" rx="59.9908" ry="26"/>
<text text-anchor="middle" x="192" y="-461.8929" font-family="Times,serif" font-size="14.00" fill="#000000">equiv_trans</text>
</a>
</g>
</g>
<!-- LMNtalGraph_Port_ind -->
<g id="node15" class="node">
<title>LMNtalGraph_Port_ind</title>
<g id="a_node15"><a xlink:href="LMNtalGraph.html#Port_ind" xlink:title="Port_ind">
<ellipse fill="#7fffd4" stroke="#000000" cx="65" cy="-465.5929" rx="40.9015" ry="18"/>
<ellipse fill="none" stroke="#000000" cx="65" cy="-465.5929" rx="44.8972" ry="22"/>
<ellipse fill="none" stroke="#000000" cx="65" cy="-465.5929" rx="48.8928" ry="26"/>
<text text-anchor="middle" x="65" y="-461.8929" font-family="Times,serif" font-size="14.00" fill="#000000">Port_ind</text>
</a>
</g>
</g>
</g>
</svg>
